<?xml version="1.0" encoding="utf-8"?>
<!-- Generator: Adobe Illustrator 25.4.1, SVG Export Plug-In . SVG Version: 6.00 Build 0)  -->
<svg version="1.1" id="Calque_1" xmlns="http://www.w3.org/2000/svg" xmlns:xlink="http://www.w3.org/1999/xlink" x="0px" y="0px"
	 viewBox="0 0 841.89 595.28" style="enable-background:new 0 0 841.89 595.28;" xml:space="preserve">
<style type="text/css">
	.st0{fill:#273473;}
	.st1{fill:#FFFFFF;}
	.st2{fill:#F49624;}
	.st3{fill:#F49622;}
	.st4{fill:#F49520;}
</style>
<polygon class="st0" points="159.87,334.9 173.62,334.9 185.24,280.28 194.25,334.9 207.67,334.9 238.44,281.26 227.31,334.9 
	260.38,334.9 280.68,237.23 249.41,237.23 220.27,289.78 210.12,237.23 180.66,237.23 "/>
<path class="st0" d="M361.87,237.23l-3.11,14.41h-35.19l-6.06,28.32h27.01l-2.13,13.1h-28.16l-5.73,28.16h37l-3.93,14.73h-58.11
	c0,0-13.1-0.16-7.37-19.64l14.08-67.12c0,0,0.82-8.84,14.9-11.95H361.87z"/>
<path class="st0" d="M440.12,236.71l-3.11,14.41h-35.19l-6.06,28.32h27.01l-2.13,13.1h-28.16l-5.73,28.16h37l-3.93,14.73h-58.11
	c0,0-13.1-0.16-7.37-19.64l14.08-67.12c0,0,0.82-8.84,14.9-11.95H440.12z"/>
<polygon class="st0" points="447.48,236.71 481.37,236.71 490.21,268.17 519.84,236.71 536.21,236.71 494.63,281.76 513.78,335.42 
	478.58,335.42 469.91,305.49 443.23,335.42 424.57,335.42 466.14,292.72 "/>
<polygon class="st0" points="534.73,318.42 531.79,335.42 556.83,335.42 560.27,318.42 "/>
<polygon class="st0" points="560.27,335.42 580.4,236.71 611.67,236.71 619.85,287.32 650.79,236.71 681.89,236.71 662.09,335.42 
	626.73,335.42 638.68,282.41 608.89,335.42 593.99,335.42 585.15,281.1 574.51,335.42 "/>
<path class="st0" d="M671.58,335.42h34.05l6.38-30.09h19.15c0,0-7.2,29.9-6.55,30.09s33.89,0,33.89,0l17.19-80.84
	c0,0,5.4-17.73-9.49-17.87s-61.39,0-61.39,0s-9.33-2.1-14.73,13.12L671.58,335.42z"/>
<polygon class="st1" points="723.15,250.16 743.12,250.16 734.11,291.92 714.63,291.92 "/>
<path class="st2" d="M63.51,334.9l7.75-35.47l56.31-3.71L71.8,291.9l3.6-14.51l40.49-1.75l-38.85-1.75l2.95-14.51l71.37-5.24
	l-69.63-5.02c0,0,4.26-9.39,13.53-11.9h61.99c0,0,10.26,0.65,8.51,16.04l-16.04,81.63h-34.27l6.88-31.54l-19.64,0.11l-5.89,31.43
	H63.51z"/>
<g>
	<path class="st3" d="M63.51,355.9c4.09,0,560.6-9.82,683.7,0"/>
	<path class="st4" d="M63.51,345.19l85.33,0.04l85.51,0.23c57,0.23,114,0.54,171.01,1.1l42.75,0.46l42.75,0.54l42.75,0.64
		l42.75,0.83c14.25,0.24,28.5,0.67,42.74,1.02l21.37,0.56l21.37,0.74l21.36,0.74l21.36,1.04c14.24,0.53,28.45,1.75,42.66,2.77
		c-14.24-0.57-28.46-1.35-42.71-1.43l-21.36-0.37l-21.37-0.08l-21.36-0.07l-21.37,0.11c-14.24,0.1-28.48,0.11-42.73,0.32
		l-42.73,0.51l-42.73,0.7l-42.73,0.8l-42.72,0.88c-56.96,1.22-113.92,2.7-170.88,4.25l-85.43,2.45l-85.6,2.64V345.19z"/>
</g>
</svg>
