<?xml version="1.0" encoding="utf-8"?>
<!-- Generator: Adobe Illustrator 25.4.1, SVG Export Plug-In . SVG Version: 6.00 Build 0)  -->
<svg version="1.1" id="Calque_1" xmlns="http://www.w3.org/2000/svg" xmlns:xlink="http://www.w3.org/1999/xlink" x="0px" y="0px"
	 viewBox="0 0 841.89 595.28" style="enable-background:new 0 0 841.89 595.28;" xml:space="preserve">
<style type="text/css">
	.st0{fill:#020203;}
	.st1{fill:#56C2DF;}
	.st2{fill:none;stroke:#FFFFFF;stroke-width:0.9087;stroke-miterlimit:8.0723;}
	.st3{fill:#FFFFFF;}
</style>
<path class="st0" d="M260.75,337.74v-80.25h21.37l27.06,59.53l26.67-59.53h20.45v80.25h-17.61V291.8l-20.33,45.93h-18.77
	l-20.57-45.7v45.7H260.75z M385.01,337.74H364.3l35.59-80.25h25.52l35.84,80.25H440.8l-7.05-16.05l-41.89,0.13L385.01,337.74z
	 M427.14,306.67l-14.56-33.14l-14.23,33.14H427.14z M469.66,337.74v-80.25h76.67v16.04h-58.15v16.06h49.86v15.92h-49.86v16.18h58.15
	v16.04H469.66z"/>
<path class="st0" d="M561.21,337.74v-80.25h65.63c0,0,4.23-0.48,8.69,3.87c4,3.89,3.34,9.59,3.34,9.59v26.96
	c0,0,0.79,4.95-3.94,9.19c-4.56,4.08-11.2,3.2-11.2,3.2l15.27,27.44h-20.06l-15.16-27.44h-23.81v27.44H561.21z M579.99,294.25h40.25
	v-20.72h-40.25V294.25z M672.63,337.74h-6.36c0,0-5.58-0.11-8.75-3.45c-3.67-3.89-3.54-8.33-3.54-8.33v-10.48h18.64v6.23h39.61
	v-16.19h-45.46c0,0-5.6,0.57-9.06-2.98c-3.84-3.93-3.42-8.66-3.42-8.66v-24.07c0,0-0.08-4.05,2.64-7.64
	c3.92-5.17,9.97-4.66,9.97-4.66l51.93,0.04c0,0,4.24-0.3,8.38,3.72c4.55,4.38,3.5,9.06,3.5,9.06v9.58h-18.51v-6.35h-39.61v16.05
	h45.3c0,0,5.32-0.39,9.06,3.88c3.76,4.27,3.76,9.06,3.76,9.06v22.65c0,0,0.61,4.45-2.95,8.48c-4.04,4.6-9.47,4.07-9.47,4.07h-45.69"
	/>
<path class="st0" d="M748.48,337.71v-80.27h19.01v32.1l36.24-32.1h25.78l-43.22,37.28l44.77,42.99H804.4l-36.9-36.52v36.52H748.48z"
	/>
<path class="st1" d="M165.37,204.97c12.87-0.05,21.16,10.4,21.2,21.17l0.04,142.92c-0.06,11.58-9.22,21.22-21.34,21.25H31.81
	c-12.43-0.02-21.21-10.24-21.21-21.33l0.01-142.84c-0.01-11.93,10.06-21.32,21.26-21.26L165.37,204.97"/>
<path class="st2" d="M165.37,204.97c12.87-0.05,21.16,10.4,21.2,21.17l0.04,142.92c-0.06,11.58-9.22,21.22-21.34,21.25H31.81
	c-12.43-0.02-21.2-10.24-21.2-21.33l0-142.84c-0.01-11.93,10.06-21.32,21.26-21.26L165.37,204.97L165.37,204.97z"/>
<path class="st3" d="M111.43,272.02l49.45-23.33c0.2-0.1,0.31,0.2,0.46,0.25l-34.19,42.74l49.95,24.14c0.25,0.15,0.5,0.35,0.16,0.6
	l-54.85,0.05l12.54,54.5l-0.35,0.31l-35.87-43.84h-0.46l-35.51,43.9c-0.2,0.15-0.3,0.15-0.51,0l12.37-54.69l-54.74-0.15
	c-0.2-0.15-0.2-0.3-0.2-0.46l49.77-23.96l0.35-0.35l-34.3-42.68c-0.1-0.25,0.1-0.36,0.25-0.56l49.5,23.33l12.96-53.08h0.35
	l12.87,53.27"/>
</svg>
