<?xml version="1.0" encoding="utf-8"?>
<!-- Generator: Adobe Illustrator 25.4.1, SVG Export Plug-In . SVG Version: 6.00 Build 0)  -->
<svg version="1.1" id="Calque_1" xmlns="http://www.w3.org/2000/svg" xmlns:xlink="http://www.w3.org/1999/xlink" x="0px" y="0px"
	 viewBox="0 0 841.89 595.28" style="enable-background:new 0 0 841.89 595.28;" xml:space="preserve">
<style type="text/css">
	.st0{fill:#FFCC00;}
	.st1{fill:#D3072A;}
</style>
<g>
	<polygon class="st0" points="831.79,206.89 831.79,388.31 9.74,388.31 9.74,206.89 831.79,206.89 	"/>
	<path class="st1" d="M154.3,239.47l-26.26,35.68c0,0,136.16,0,143.14,0c7.24,0,7.14,2.75,3.6,7.54
		c-3.59,4.86-9.6,13.32-13.26,18.26c-1.86,2.51-5.21,7.07,5.91,7.07c11.76,0,58.54,0,58.54,0s9.43-12.84,17.34-23.57
		c10.76-14.6,0.93-44.99-37.53-44.99C271.35,239.47,154.3,239.47,154.3,239.47L154.3,239.47z"/>
	<path class="st1" d="M117.41,355.72l52.75-71.68c0,0,58.48,0,65.46,0c7.24,0,7.14,2.75,3.6,7.54c-3.59,4.86-9.7,13.23-13.36,18.17
		c-1.86,2.51-5.21,7.08,5.91,7.08c11.76,0,87.7,0,87.7,0c-7.29,9.99-30.95,38.88-73.43,38.88
		C211.62,355.72,117.41,355.72,117.41,355.72L117.41,355.72z"/>
	<path class="st1" d="M419.53,316.83l-28.61,38.89h-75.46c0,0,28.59-38.88,28.62-38.88L419.53,316.83L419.53,316.83z"/>
	<polygon class="st1" points="535.13,308.03 350.56,308.03 401.03,239.47 476.47,239.47 447.54,278.78 481.22,278.78 510.16,239.47 
		585.59,239.47 535.13,308.03 	"/>
	<path class="st1" d="M528.66,316.84l-28.62,38.88H424.6c0,0,28.59-38.88,28.62-38.88H528.66L528.66,316.84z"/>
	<polygon class="st1" points="9.74,332.17 120.9,332.17 114.83,340.43 9.74,340.43 9.74,332.17 	"/>
	<polygon class="st1" points="9.74,316.84 132.2,316.84 126.11,325.09 9.74,325.09 9.74,316.84 	"/>
	<polygon class="st1" points="9.74,347.51 109.61,347.51 103.57,355.72 9.74,355.72 9.74,347.51 	"/>
	<polygon class="st1" points="831.79,340.43 721.05,340.43 727.13,332.17 831.79,332.17 831.79,340.43 	"/>
	<polygon class="st1" points="831.79,355.72 709.79,355.73 715.84,347.51 831.79,347.51 831.79,355.72 	"/>
	<polygon class="st1" points="738.41,316.84 831.79,316.84 831.79,325.09 732.34,325.1 738.41,316.84 	"/>
	<path class="st1" d="M690.07,239.47l-50.47,68.56h-79.94c0,0,50.48-68.56,50.5-68.56H690.07L690.07,239.47z"/>
	<path class="st1" d="M553.2,316.84c0,0-5.51,7.54-8.19,11.16c-9.48,12.81-1.1,27.73,29.82,27.73c35.71,0,121.15,0,121.15,0
		l28.62-38.88H553.2L553.2,316.84z"/>
</g>
</svg>
