<svg width="104" height="104" viewBox="0 0 104 104" fill="none" xmlns="http://www.w3.org/2000/svg">
<path fill-rule="evenodd" clip-rule="evenodd" d="M35.0096 2.1255C34.776 2.28902 34.5325 2.68491 34.4685 3.00523C34.3978 3.35827 34.0803 3.77366 33.6617 4.06067C32.5744 4.80573 32.0273 5.76428 31.9311 7.09353C31.8279 8.5217 32.3014 9.57755 33.5087 10.6108C34.5012 11.4605 34.5707 12.0516 33.7293 12.4867C32.475 13.1353 31.55 15.0264 31.7517 16.5293L31.8642 17.3672L17.2071 26.4062C9.14571 31.3777 2.38754 35.6052 2.18909 35.8008C1.84906 36.1357 1.82814 37.1343 1.82814 53.0818V70.0072L2.29817 70.449L2.7684 70.8906H35.9247H69.081L69.5795 70.392L70.0781 69.8935V53.1109V36.3281L69.5195 35.7841C69.2124 35.4849 62.4484 31.2248 54.4883 26.3175L40.0156 17.3948V16.4162C40.0156 15.7083 39.9033 15.3252 39.6094 15.0312C39.0553 14.4771 38.1611 14.5123 37.5995 15.1103C37.1774 15.5594 37.101 15.5742 36.571 15.3097C36.1388 15.0942 35.8609 15.0763 35.4378 15.2372C34.9448 15.4247 34.9083 15.4129 35.1354 15.1393C35.2773 14.9681 35.6149 14.8281 35.8857 14.8281C36.1565 14.8281 36.6021 14.6037 36.8763 14.3295C37.3039 13.9021 37.375 13.6419 37.375 12.5066C37.375 11.2458 37.4037 11.1674 37.9738 10.8727C39.2555 10.2099 40.1544 8.33645 39.9248 6.80631C39.7709 5.77911 38.8853 4.46083 37.9968 3.93595C37.6157 3.71089 37.375 3.40275 37.375 3.14011C37.375 2.57075 36.5597 1.82812 35.9345 1.82812C35.6592 1.82812 35.243 1.96198 35.0096 2.1255ZM35.0149 6.81302C34.5835 7.47155 34.8886 8.25703 35.6497 8.44817C36.6728 8.70492 37.402 7.36856 36.6497 6.61598C36.163 6.1295 35.4029 6.22091 35.0149 6.81302ZM21.0655 27.4735L8.51359 35.2422L22.2335 35.2944C29.7792 35.323 42.1099 35.323 49.6346 35.2944L63.3163 35.2422L50.7392 27.4727L38.1621 19.7031L37.1396 20.0377C36.1227 20.3702 35.8422 20.3509 34.0234 19.8228C33.7263 19.7364 30.2465 21.7908 21.0655 27.4735ZM4.67189 53.0156V67.8438H35.8516H67.0313V53.0156V38.1875H35.8516H4.67189V53.0156ZM9.75509 42.8543C9.53449 43.0749 9.30253 43.4633 9.23976 43.7176C9.17679 43.9717 9.1516 48.3064 9.1837 53.35C9.23915 62.0374 9.26251 62.5428 9.62915 62.9476C10.1583 63.532 11.1759 63.5115 11.7459 62.905C12.1863 62.436 12.1875 62.4089 12.1875 52.9425V43.4503L11.6888 42.9518C11.087 42.3497 10.2995 42.3099 9.75509 42.8543ZM18.1135 42.9232C17.6729 43.3922 17.6719 43.4167 17.6719 52.9778C17.6719 62.2917 17.6835 62.5741 18.0781 62.9688C18.3038 63.1944 18.7552 63.375 19.0938 63.375C19.4324 63.375 19.8837 63.1944 20.1094 62.9688C20.5043 62.5739 20.5156 62.2917 20.5156 52.9494V43.3365L20.0456 42.8947C19.4356 42.3219 18.668 42.3331 18.1135 42.9232ZM26.9141 42.8909C25.9884 43.397 26 43.2662 26 53.1393C26 58.3038 26.0569 62.6773 26.1262 62.858C26.1956 63.039 26.5249 63.3279 26.858 63.5001C27.6116 63.8897 28.4722 63.6015 28.8174 62.8438C29.1363 62.1443 29.1399 44.3012 28.8214 43.6022C28.6973 43.33 28.3731 43.0058 28.1009 42.8817C27.5011 42.6085 27.4292 42.6089 26.9141 42.8909ZM35.0169 43.1316L34.4297 43.6367V53.2188V62.8008L35.0169 63.3059C35.6944 63.8885 36.4386 63.8272 37.0195 63.1408C37.347 62.7536 37.375 61.9726 37.375 53.2188C37.375 44.4649 37.347 43.6839 37.0195 43.2967C36.4386 42.6103 35.6944 42.549 35.0169 43.1316ZM43.7359 42.8608C43.4919 42.9591 43.1947 43.2215 43.0757 43.444C42.9315 43.7133 42.8594 46.9962 42.8594 53.2844C42.8594 61.9759 42.8874 62.7538 43.2149 63.1408C43.7631 63.7886 44.5102 63.8775 45.1533 63.3717L45.7031 62.9393V53.2188V43.4982L45.1679 43.0773C44.5849 42.6187 44.4048 42.5913 43.7359 42.8608ZM52.074 42.8939C51.8353 43.0093 51.5383 43.3274 51.4138 43.6006C51.0947 44.3012 51.0975 62.1428 51.417 62.8438C51.9194 63.9466 53.505 63.9413 54.0089 62.8353C54.1635 62.4959 54.2344 59.4711 54.2344 53.2188C54.2344 46.9664 54.1635 43.9416 54.0089 43.6022C53.8848 43.33 53.5606 43.0058 53.2884 42.8817C52.7073 42.617 52.6443 42.6177 52.074 42.8939ZM60.2686 43.0658L59.7188 43.4982V53.2188V62.9393L60.2686 63.3717C60.9117 63.8775 61.6588 63.7886 62.207 63.1408C62.5345 62.7536 62.5625 61.9726 62.5625 53.2188C62.5625 44.4649 62.5345 43.6839 62.207 43.2967C61.6588 42.6489 60.9117 42.56 60.2686 43.0658ZM77.6862 67.5299L77.1875 68.0284V77.6862V87.3438H73.6328H70.0781V85.2384C70.0781 83.4159 70.0215 83.0611 69.6571 82.5977L69.2362 82.0625H35.9383C2.9114 82.0625 2.63739 82.0658 2.23439 82.4688C1.86206 82.8411 1.82814 83.1458 1.82814 86.125C1.82814 90.3102 1.73551 90.1875 4.89187 90.1875C6.13012 90.1875 7.10837 90.256 7.06571 90.3398C5.82584 92.779 5.78907 92.9061 5.78907 94.7621C5.78907 96.419 5.85224 96.7231 6.44923 97.9355C7.23187 99.5252 8.50668 100.773 10.1207 101.53C11.1154 101.996 11.5381 102.07 13.2031 102.07C14.87 102.07 15.2904 101.996 16.2898 101.528C19.2601 100.136 21.1104 96.6631 20.5364 93.558C20.4161 92.9073 20.0511 91.8828 19.7253 91.2813L19.1328 90.1875H20.9442H22.7557L22.253 90.9492C21.5256 92.0512 21.0519 94.0916 21.2055 95.4614C21.3789 97.0099 22.54 99.3166 23.619 100.257C24.0906 100.668 24.9793 101.244 25.5938 101.537C26.5574 101.997 26.9766 102.07 28.6437 102.07C30.418 102.07 30.6877 102.015 31.9339 101.403C33.5142 100.625 34.7468 99.3511 35.5126 97.7031C35.9448 96.7726 36.033 96.2804 36.0399 94.7578C36.0484 92.9082 36.0033 92.7499 34.7781 90.3398C34.7354 90.256 40.0024 90.1875 46.4825 90.1875H58.2644L57.6205 91.457C57.0249 92.6313 56.9766 92.8791 56.9766 94.7578C56.9766 96.5853 57.0339 96.9012 57.5486 97.9062C59.2536 101.237 62.9826 102.905 66.4603 101.894C67.7253 101.527 69.3252 100.429 70.08 99.412L70.586 98.7299L76.0392 98.7244L81.4925 98.7188L82.4001 99.7281C82.9758 100.368 83.8033 100.981 84.6625 101.404C85.9056 102.015 86.1766 102.07 87.9501 102.07C89.6673 102.07 90.0153 102.005 91.0709 101.487C91.7244 101.166 92.7428 100.412 93.3341 99.8112L94.4091 98.7188L96.8179 98.7143C98.724 98.7108 99.3962 98.6316 100.039 98.3348C100.979 97.901 101.647 97.2335 101.955 96.4204C102.096 96.0485 102.172 92.8681 102.172 87.3204C102.172 79.7964 102.132 78.7158 101.837 78.1422C100.923 76.3675 95.928 68.8655 95.2193 68.2027C94.7735 67.7855 94.0757 67.3518 93.6691 67.2388C93.2336 67.118 89.8995 67.0331 85.5573 67.0325L78.1847 67.0312L77.6862 67.5299ZM80.0313 82.875C80.0313 89.9466 80.1099 95.6719 80.2072 95.6719C80.3039 95.6719 80.4278 95.0462 80.4824 94.2817C80.6695 91.6667 82.2967 89.2283 84.6467 88.0411C85.7094 87.5042 86.0123 87.448 87.8516 87.4467C89.6397 87.4455 90.024 87.5115 91.0628 87.9982C91.7577 88.3236 92.6935 89.0126 93.339 89.674L94.4355 90.7969H96.8817H99.3281V89.7057V88.6145L98.5268 88.4863C96.5248 88.1662 96.7206 85.5156 98.7462 85.5156H99.3281L99.3261 82.5195L99.3241 79.5234L96.3595 74.9531C94.7288 72.4395 93.29 70.3156 93.1623 70.2335C93.0343 70.1515 90.0275 70.083 86.4805 70.0812L80.0313 70.0781V82.875ZM83.7527 71.5384C82.9831 71.9105 82.8405 72.66 82.9108 75.9639C82.9739 78.9265 82.9961 79.0682 83.4562 79.4404C83.9028 79.8017 84.3298 79.8281 89.7114 79.8281H95.4873L95.9857 79.3295C96.2599 79.0552 96.4844 78.6295 96.4844 78.3831C96.4844 77.8509 92.764 72.0267 92.1487 71.5957C91.8087 71.3574 90.9592 71.2997 87.9586 71.3107C85.7683 71.3186 84.0103 71.4139 83.7527 71.5384ZM85.9219 75.5625V76.7812H89.0709H92.2202L91.4583 75.5625L90.6965 74.3438H88.3092H85.9219V75.5625ZM4.67189 86.125V87.3438H35.8516H67.0313V86.125V84.9062H35.8516H4.67189V86.125ZM11.7301 90.4774C10.569 90.8915 9.63646 91.7024 9.13901 92.73C8.77339 93.4852 8.70432 93.9197 8.76871 95.0597C8.83513 96.2337 8.95031 96.6028 9.48006 97.3359C10.3381 98.5235 11.7197 99.2221 13.1912 99.2121C17.2644 99.1843 19.1844 94.279 16.2232 91.4658C15.0079 90.3108 13.2685 89.9283 11.7301 90.4774ZM27.1211 90.4999C25.4049 91.1538 24.1808 92.9264 24.1808 94.7578C24.1808 96.0905 24.7289 97.2495 25.7871 98.1555C27.9793 100.032 31.2051 99.4205 32.5959 96.8652C33.0826 95.9707 33.1435 95.6662 33.0755 94.4621C33.0125 93.3477 32.8843 92.9197 32.4076 92.232C31.2551 90.5688 28.9354 89.8089 27.1211 90.4999ZM63.1707 90.3772C61.0228 91.0307 59.8538 92.585 59.8486 94.7944C59.8449 96.4039 60.5948 97.7157 62.0236 98.5991C62.8308 99.0982 63.2121 99.2006 64.2525 99.1975C66.6218 99.1908 68.3213 97.7657 68.7619 95.4163C69.3282 92.3983 66.0977 89.4869 63.1707 90.3772ZM70.9536 91.4341C71.4635 92.4227 71.6121 92.99 71.6721 94.1763L71.7476 95.6719H74.4675H77.1875V92.9297V90.1875H73.749H70.3107L70.9536 91.4341ZM86.4801 90.4774C85.319 90.8915 84.3865 91.7024 83.889 92.73C83.5234 93.4852 83.4543 93.9197 83.5187 95.0597C83.5851 96.2337 83.7003 96.6028 84.2301 97.3359C85.0881 98.5235 86.4697 99.2221 87.9412 99.2121C92.0144 99.1843 93.9344 94.279 90.9732 91.4658C89.7579 90.3108 88.0185 89.9283 86.4801 90.4774ZM12.7969 93.1767C11.0189 93.8147 11.3192 96.2812 13.1747 96.2812C13.9748 96.2812 14.8281 95.5055 14.8281 94.7783C14.8281 93.8602 13.597 92.8897 12.7969 93.1767ZM28.1038 93.2346C27.5501 93.4556 27.0156 94.2126 27.0156 94.7757C27.0156 95.015 27.2052 95.4517 27.4367 95.746C28.3368 96.8902 30.2656 96.1527 30.2656 94.6642C30.2656 93.7125 29.0012 92.8763 28.1038 93.2346ZM63.645 93.3367C62.1615 93.9603 62.5995 96.2812 64.2009 96.2812C65.0577 96.2812 65.5306 95.9871 65.7678 95.3064C66.2332 93.9713 64.9555 92.7857 63.645 93.3367ZM87.5469 93.1767C85.7689 93.8147 86.0692 96.2812 87.9247 96.2812C88.7248 96.2812 89.5781 95.5055 89.5781 94.7783C89.5781 93.8602 88.347 92.8897 87.5469 93.1767ZM95.3672 94.7578V95.6719H97.2244C99.2439 95.6719 99.3281 95.6223 99.3281 94.4365V93.8438H97.3477H95.3672V94.7578Z" fill="black" fill-opacity="0.478"/>
<path fill-rule="evenodd" clip-rule="evenodd" d="M35.0665 2.2492C34.7537 2.49519 34.5312 2.8728 34.5312 3.15798C34.5312 3.49009 34.3444 3.74238 33.946 3.94834C31.4391 5.24489 31.2774 8.95659 33.655 10.6324C34.7531 11.4065 34.8114 11.9821 33.8485 12.5501C33.4732 12.7717 32.903 13.2978 32.5815 13.7193C32.0864 14.3683 31.9855 14.713 31.9219 15.9695L31.847 17.4531L17.2947 26.4191C9.29073 31.3503 2.53642 35.6092 2.28516 35.8835L1.82812 36.3821V53.106C1.82812 69.2697 1.84112 69.8462 2.2165 70.3095L2.60467 70.7891H35.8124C68.1828 70.7891 69.0306 70.7793 69.4474 70.4021L69.875 70.0152V53.0857C69.875 37.1014 69.8547 36.1363 69.5122 35.8008C69.3127 35.6052 62.556 31.3777 54.497 26.4063L39.8446 17.3672L39.9543 16.4363C40.0532 15.5982 40.0083 15.4613 39.5048 15.0652C38.7796 14.4948 38.285 14.509 37.6766 15.1174C37.2385 15.5555 37.1162 15.5844 36.5686 15.3776C36.1091 15.2043 35.7985 15.2037 35.3438 15.3753C34.7271 15.6081 34.5223 15.4448 34.9883 15.0918C35.128 14.9858 35.6155 14.7928 36.072 14.6624C37.0918 14.3713 37.375 13.8316 37.375 12.178C37.375 11.5129 37.4632 10.9688 37.571 10.9688C37.9486 10.9688 39.2663 9.64864 39.5381 8.99803C40.2265 7.35048 39.614 5.15267 38.1922 4.16731C37.6929 3.82139 37.3508 3.39889 37.2692 3.02778C37.1323 2.40378 36.4922 1.82812 35.9352 1.82812C35.7518 1.82812 35.3608 2.01764 35.0665 2.2492ZM35.0535 6.61598C34.3058 7.36389 34.9934 8.62164 36.0811 8.4957C36.4435 8.45366 36.7601 8.23469 36.9503 7.89445C37.218 7.41508 37.2129 7.30397 36.9011 6.82805C36.4975 6.21217 35.5645 6.10512 35.0535 6.61598ZM37.4766 19.827C36.7213 20.1543 35.3257 20.1811 34.345 19.8874L33.604 19.6653L20.9867 27.4538L8.36936 35.2422L22.1772 35.2944C29.7714 35.323 42.1659 35.323 49.7207 35.2944L63.4565 35.2422L51.7869 28.0412C45.3686 24.0809 39.6602 20.553 39.1016 20.2016C38.1658 19.6131 38.038 19.5837 37.4766 19.827ZM4.67188 53.1172V68.0469H35.9531H67.2344V53.1172V38.1875H35.9531H4.67188V53.1172ZM10.3594 42.5971C10.1918 42.6589 9.89462 42.8486 9.69922 43.0188C9.36995 43.3056 9.34375 44.0395 9.34375 52.9376V62.5467L9.78839 62.9608C10.345 63.4796 10.9864 63.4888 11.6064 62.9868L12.0859 62.5987L12.1481 53.4907C12.1885 47.5631 12.1359 44.1285 11.9976 43.6546C11.8631 43.1939 11.5942 42.8393 11.2657 42.6898C10.9801 42.5596 10.728 42.4604 10.7053 42.4692C10.6825 42.4779 10.527 42.5356 10.3594 42.5971ZM18.5484 42.6595C18.3044 42.7568 18.0072 43.0184 17.8882 43.2408C17.7442 43.5102 17.6719 46.7726 17.6719 53.0116V62.3779L18.1705 62.8763C18.4448 63.1506 18.8602 63.375 19.0938 63.375C19.3273 63.375 19.7427 63.1506 20.017 62.8763L20.5156 62.3779V52.9458C20.5156 44.2548 20.4876 43.4815 20.1602 43.1027C19.718 42.5913 19.1273 42.4288 18.5484 42.6595ZM26.5393 43.2309C26.2364 43.5654 26.2031 44.5581 26.2031 53.2541C26.2031 62.3466 26.2247 62.9253 26.5746 63.242C27.0676 63.6882 28.0887 63.6695 28.5076 63.2066C28.8104 62.8721 28.8438 61.8794 28.8438 53.1834C28.8438 44.0909 28.8222 43.5122 28.4722 43.1955C27.9793 42.7493 26.9581 42.768 26.5393 43.2309ZM34.9375 43.2656C34.5428 43.6603 34.5312 43.9426 34.5312 53.2188C34.5312 62.4949 34.5428 62.7772 34.9375 63.1719C35.5221 63.7565 36.439 63.6978 36.9539 63.0429C37.3661 62.5192 37.375 62.3086 37.375 53.2188C37.375 44.1289 37.3661 43.9183 36.9539 43.3946C36.439 42.7397 35.5221 42.681 34.9375 43.2656ZM43.2805 43.3946C42.8683 43.9183 42.8594 44.1289 42.8594 53.2188C42.8594 62.3086 42.8683 62.5192 43.2805 63.0429C43.7954 63.6978 44.7123 63.7565 45.2969 63.1719C45.6915 62.7772 45.7031 62.4949 45.7031 53.2188C45.7031 43.9426 45.6915 43.6603 45.2969 43.2656C44.7123 42.681 43.7954 42.7397 43.2805 43.3946ZM51.7268 43.2309C51.4239 43.5654 51.3906 44.5581 51.3906 53.2541C51.3906 62.3466 51.4122 62.9253 51.7621 63.242C52.2551 63.6882 53.2762 63.6695 53.6951 63.2066C53.9979 62.8721 54.0312 61.8794 54.0312 53.1834C54.0312 44.0909 54.0097 43.5122 53.6597 43.1955C53.1667 42.7493 52.1456 42.768 51.7268 43.2309ZM60.125 43.2656C59.7303 43.6603 59.7188 43.9426 59.7188 53.2188C59.7188 62.4949 59.7303 62.7772 60.125 63.1719C60.7096 63.7565 61.6265 63.6978 62.1414 63.0429C62.5536 62.5192 62.5625 62.3086 62.5625 53.2188C62.5625 44.1289 62.5536 43.9183 62.1414 43.3946C61.6265 42.7397 60.7096 42.681 60.125 43.2656ZM77.6086 67.7696C77.1962 68.2937 77.1875 68.5013 77.1875 77.8243V87.3438H73.5312H69.875V85.1094C69.875 83.1458 69.8258 82.8259 69.4688 82.4688C69.0658 82.0658 68.7917 82.0625 35.944 82.0625H2.82527L2.3268 82.5612C1.84133 83.0464 1.82812 83.1413 1.82812 86.125C1.82812 89.1087 1.84133 89.2036 2.3268 89.6888C2.79541 90.1576 2.95892 90.1875 5.04928 90.1875H7.2735L6.67489 91.2925C4.65766 95.017 6.21034 99.5796 10.124 101.427C11.3118 101.988 11.6868 102.066 13.2031 102.064C14.6394 102.062 15.1235 101.971 16.0824 101.526C17.6252 100.808 18.9928 99.5071 19.7724 98.0153C20.3667 96.8778 20.4132 96.6418 20.4137 94.7578C20.4141 92.8647 20.3694 92.6402 19.757 91.457L19.0998 90.1875H20.9103H22.7205L22.0752 91.439C21.4754 92.6021 21.4297 92.8352 21.4297 94.7397C21.4297 96.5669 21.4906 96.913 21.9911 97.9319C22.6854 99.345 24.219 100.809 25.7526 101.521C26.7209 101.972 27.2011 102.062 28.6406 102.064C30.1511 102.066 30.5323 101.987 31.6875 101.44C34.7933 99.9661 36.3653 97.0294 35.906 93.5592C35.8166 92.8844 35.49 91.8856 35.1587 91.274L34.5703 90.1875H46.55H58.5294L58.121 90.7069C57.0251 92.0999 56.651 95.2181 57.3424 97.1953C58.1443 99.4886 60.1163 101.261 62.558 101.884C65.1763 102.551 67.6278 101.829 69.6195 99.8047L70.8872 98.5156H76.2718C79.2332 98.5156 81.6562 98.592 81.6562 98.6852C81.6562 99.1313 83.7163 100.878 84.9062 101.441C86.057 101.986 86.449 102.066 87.9574 102.068C89.508 102.07 89.8302 102 91.0524 101.399C91.9843 100.94 92.7231 100.377 93.3841 99.6239L94.3516 98.5207L96.9922 98.5148C100.134 98.5079 100.906 98.2111 101.7 96.7064C102.172 95.8112 102.172 95.8098 102.17 87.4642L102.168 79.1172L101.681 78.1016C101.412 77.543 99.8822 75.0811 98.2802 72.6308C95.7125 68.7038 95.2612 68.12 94.472 67.705C93.5811 67.2366 93.5385 67.2344 85.803 67.2344H78.0294L77.6086 67.7696ZM80.0312 82.8919C80.0312 93.2179 80.0837 95.8904 80.2852 95.8194C80.4249 95.77 80.5167 95.5567 80.4893 95.3453C80.4621 95.134 80.5356 94.3761 80.6528 93.6613C81.1497 90.6338 83.058 88.4882 86.0088 87.6401C88.6204 86.8894 91.4528 87.7498 93.4066 89.8877L94.4233 91H96.8756H99.3281V89.6797V88.3594H98.632C97.8949 88.3594 97.0938 87.6279 97.0938 86.9554C97.0938 86.3078 97.7086 85.7226 98.5268 85.5918L99.3281 85.4636V82.4385V79.4131L96.4094 74.8981C94.7426 72.3194 93.2831 70.2752 93.0071 70.132C92.6543 69.9489 90.833 69.8801 86.2773 69.8781L80.0312 69.875V82.8919ZM83.4143 71.8715C83.1299 72.1858 83.0781 72.7622 83.0781 75.6145V78.9862L83.6134 79.4071C84.1246 79.8092 84.3925 79.8281 89.596 79.8281C93.2348 79.8281 95.2118 79.7514 95.5506 79.597C96.1366 79.3301 96.4966 78.4867 96.2774 77.8942C96.0468 77.2706 92.6262 72.0425 92.26 71.7539C92.0266 71.5699 90.8121 71.5 87.8442 71.5C84.1362 71.5 83.7188 71.5349 83.4143 71.8715ZM85.9219 75.5625V76.9844H89.1839C91.7375 76.9844 92.4136 76.9293 92.297 76.7305C92.2151 76.5909 91.7948 75.9511 91.3634 75.3086L90.5785 74.1406H88.2503H85.9219V75.5625ZM4.67188 86.125V87.3438H35.9531H67.2344V86.125V84.9063H35.9531H4.67188V86.125ZM11.2621 90.5596C9.70328 91.2884 8.5282 93.1501 8.53328 94.8829C8.53816 96.5851 10.193 98.6948 11.8814 99.1512C13.7534 99.6572 15.965 98.8382 17.0162 97.2498C17.5057 96.5102 17.5703 96.2195 17.5703 94.7578C17.5703 93.2915 17.5065 93.0067 17.0099 92.2565C16.1342 90.9332 15.0312 90.3112 13.4288 90.2369C12.4347 90.1908 11.872 90.2747 11.2621 90.5596ZM26.5905 90.66C23.2542 92.4209 23.3114 97.2684 26.6872 98.8402C28.377 99.6269 30.1854 99.4141 31.5805 98.2642C34.1937 96.11 33.5532 91.8099 30.4245 90.503C29.2914 90.0297 27.6581 90.0965 26.5905 90.66ZM62.4609 90.5692C59.4596 91.946 58.7931 95.7966 61.1666 98.0482C64.2161 100.942 69.1661 98.5595 68.8181 94.3658C68.5612 91.2673 65.25 89.2897 62.4609 90.5692ZM70.3249 90.3399C71.3531 92.3624 71.5741 93.0325 71.6613 94.3912L71.7565 95.875H74.4721H77.1875V93.0313V90.1875H73.7175C71.809 90.1875 70.2823 90.256 70.3249 90.3399ZM86.0121 90.5596C82.9536 91.9894 82.4393 96.1391 85.0527 98.2979C87.0742 99.9676 90.301 99.4638 91.7662 97.2498C92.2557 96.5102 92.3203 96.2195 92.3203 94.7578C92.3203 93.2915 92.2565 93.0067 91.7599 92.2565C90.8842 90.9332 89.7812 90.3112 88.1788 90.2369C87.1847 90.1908 86.622 90.2747 86.0121 90.5596ZM12.054 93.7556C11.6336 94.1761 11.5568 94.4019 11.6575 94.9236C12.0236 96.8185 14.625 96.617 14.625 94.694C14.625 93.316 13.0634 92.7463 12.054 93.7556ZM27.625 93.6406C27.0664 94.1992 27.0859 95.3292 27.6634 95.8671C28.641 96.7779 30.1437 96.106 30.1437 94.7578C30.1437 93.4168 28.5541 92.7115 27.625 93.6406ZM63.1867 93.7696C62.6281 94.4795 62.6549 95.1734 63.2643 95.7826C63.8735 96.392 64.5673 96.4188 65.2773 95.8602C66.3729 94.9985 65.676 93.2344 64.2399 93.2344C63.7987 93.2344 63.4804 93.3963 63.1867 93.7696ZM86.804 93.7556C86.3836 94.1761 86.3068 94.4019 86.4075 94.9236C86.7736 96.8185 89.375 96.617 89.375 94.694C89.375 93.316 87.8134 92.7463 86.804 93.7556ZM95.2656 94.7578V95.875H96.904C99.032 95.875 99.3281 95.7129 99.3281 94.5476V93.6406H97.2969H95.2656V94.7578Z" fill="#EC5A31"/>
</svg>
