<svg width="104" height="104" viewBox="0 0 104 104" fill="none" xmlns="http://www.w3.org/2000/svg">
<g clip-path="url(#clip0_3_22)">
<path fill-rule="evenodd" clip-rule="evenodd" d="M42.7578 0.249174C41.1158 0.834581 39.5994 2.39072 39.3122 3.78538L39.181 4.42238L37.1957 4.502C35.462 4.57167 35.0421 4.6645 33.8845 5.23447C32.2861 6.02138 30.8569 7.47941 30.0991 9.09628L29.5547 10.2578L29.4531 17.5077L29.3516 24.7574L28.5062 25.4808C27.0473 26.729 26.8125 27.4868 26.8125 30.9456C26.8125 34.2771 26.9827 34.9657 28.0924 36.1233C28.9455 37.0134 29.9699 37.5248 31.2352 37.6926L32.2636 37.8291L32.498 39.1752C33.1876 43.1352 35.644 47.4991 38.5562 49.9372L39.6094 50.819V55.0432C39.6094 58.7654 39.5671 59.3189 39.2539 59.7016C38.9523 60.0701 38.3147 60.2255 35.0391 60.729C23.3945 62.5188 18.123 64.2853 14.635 67.5666C10.8142 71.1609 9.40207 74.5405 9.1963 80.5823C9.0984 83.4567 9.12785 83.9424 9.42787 84.4002C9.92999 85.1668 10.6125 85.4252 11.3395 85.1239C12.2442 84.7494 12.3906 84.1699 12.3906 80.9682C12.3906 77.6002 12.7492 75.8344 13.8852 73.6051C14.9998 71.4189 16.9339 69.3409 18.9491 68.1652C20.9977 66.9698 25.2312 65.6975 30.4535 64.7076C31.9534 64.4235 33.1969 64.213 33.2171 64.2398C33.2372 64.2669 34.0115 66.2542 34.9377 68.6562C36.9349 73.8357 37.1347 74.2527 38.0173 75.0827C39.1507 76.1483 39.9604 76.4659 41.5391 76.4645C42.7471 76.4633 43.1549 76.3628 44.251 75.7962C44.9605 75.4296 45.5632 75.1584 45.59 75.1938C45.6168 75.2289 46.0667 76.1824 46.59 77.3124L47.541 79.367L45.8096 90.0144C44.8573 95.8703 44.0781 100.727 44.0781 100.807C44.0781 100.887 39.8735 100.953 34.7344 100.953H25.3906V97.5859V94.2187L24.7969 93.6249C24.046 92.874 23.4853 92.874 22.7344 93.6249L22.1406 94.2187V97.5859V100.953H18.4779C14.5038 100.953 13.9119 100.833 13 99.8462C12.4971 99.3017 12.4912 99.2529 12.3906 94.747C12.294 90.4113 12.2682 90.1767 11.8459 89.755C11.2791 89.1889 10.2424 89.1982 9.66674 89.7745C9.2611 90.1805 9.24221 90.4042 9.24221 94.8146C9.24221 99.2434 9.26171 99.4729 9.72687 100.502C10.0149 101.14 10.6125 101.935 11.2007 102.464C13.0591 104.135 9.47926 104 52 104C94.5208 104 90.9409 104.135 92.7993 102.464C93.3876 101.935 93.9852 101.14 94.2732 100.502L94.7578 99.4296V88.5624C94.7578 76.779 94.7495 76.6725 93.6 73.6716C92.7658 71.4932 91.3059 69.3925 89.3448 67.5475C88.0123 66.294 87.256 65.7801 85.4362 64.8919C82.0233 63.226 76.4414 61.8245 68.5547 60.6531C65.6303 60.2186 65.0471 60.0733 64.7461 59.7039C64.4333 59.3198 64.3907 58.7675 64.3907 55.1006V50.9339L65.9913 49.3589C67.7004 47.677 68.835 46.1436 69.8234 44.1796C70.5289 42.7777 71.3875 40.1415 71.5851 38.771L71.7206 37.8312L72.757 37.6936C74.0299 37.5248 75.0529 37.015 75.9076 36.1233C77.0173 34.9657 77.1875 34.2771 77.1875 30.9456C77.1875 27.4602 76.9462 26.7007 75.4388 25.4407L74.5469 24.6951V21.3774C74.5469 18.1256 74.5369 18.0496 74.0482 17.5611C73.4391 16.9517 72.7452 16.9249 72.0353 17.4835L71.5 17.9044V21.1398V24.3749H70.3908C68.5425 24.3749 68.25 23.7973 68.25 20.1481C68.25 18.3897 68.1739 17.8457 67.8267 17.1289C67.2691 15.9769 65.84 14.7423 64.6921 14.421C63.3529 14.0458 60.5888 14.278 58.6016 14.9325C57.7078 15.2268 55.9744 15.6127 54.7493 15.7903C51.9029 16.2028 49.2999 15.957 45.7137 14.9375C41.6734 13.7889 39.2153 13.9493 37.4817 15.4754C36.0848 16.7049 35.75 17.6082 35.75 20.1481C35.75 23.804 35.4591 24.3749 33.5967 24.3749H32.4748L32.5382 17.7226C32.6083 10.3752 32.6258 10.2649 33.9375 8.95308C34.953 7.93766 35.8034 7.64678 37.6687 7.67664C40.1981 7.71707 41.7713 6.76624 42.3353 4.85585C42.4869 4.34255 42.8267 3.80163 43.1484 3.56133C43.6835 3.16158 44.016 3.14635 53.4873 3.08663C60.2571 3.04377 63.649 3.09678 64.4922 3.25807C68.2189 3.97185 70.7978 6.74349 71.3282 10.6057C71.4679 11.6223 71.665 12.2291 71.9575 12.5429C72.5366 13.1645 73.4141 13.1356 74.0763 12.4734C74.5707 11.979 74.5961 11.8586 74.4927 10.4926C74.1315 5.71649 70.4513 1.41064 65.7916 0.312143C64.7167 0.0588463 62.6669 0.00826816 53.9297 0.0190338C46.9794 0.027565 43.1588 0.106378 42.7578 0.249174ZM40.0945 17.4518C39.8586 17.5542 39.4701 17.8865 39.2312 18.1902C38.8422 18.6848 38.7967 18.9986 38.7949 21.2031C38.7932 23.353 38.7331 23.7924 38.3189 24.6796C37.8304 25.7263 36.528 27.0733 35.7726 27.3131C35.3521 27.4466 35.3438 27.5431 35.3438 32.2925C35.3438 37.6414 35.5317 39.1537 36.5099 41.6729C38.4339 46.6277 43.0767 50.3601 48.7382 51.5031C50.9576 51.9514 54.4934 51.8155 56.6343 51.1998C61.7011 49.7426 65.8414 46.062 67.5708 41.4775C68.4722 39.0873 68.6563 37.5309 68.6563 32.2925C68.6563 27.5431 68.6479 27.4466 68.2275 27.3131C67.4721 27.0733 66.1696 25.7263 65.6811 24.6796C65.2661 23.7906 65.2068 23.3542 65.2052 21.179C65.2032 18.7214 65.1967 18.6864 64.6104 18.0305C64.0547 17.4088 63.9371 17.3681 62.7315 17.3844C61.9792 17.3946 60.6865 17.6265 59.6172 17.9432C54.4069 19.4859 49.9487 19.4971 44.8963 17.98C42.9973 17.4096 40.7587 17.1634 40.0945 17.4518ZM30.4531 28.0156C29.8679 28.6008 29.8594 28.642 29.8594 30.8727C29.8594 33.7071 30.2277 34.5097 31.5352 34.5247L32.0938 34.5312V30.9765V27.4218H31.5703C31.2626 27.4218 30.8021 27.6666 30.4531 28.0156ZM71.9063 30.9765V34.5312L72.4649 34.5247C73.7724 34.5097 74.1406 33.7071 74.1406 30.8727C74.1406 28.642 74.1321 28.6008 73.5469 28.0156C73.1979 27.6666 72.7375 27.4218 72.4297 27.4218H71.9063V30.9765ZM42.805 56.343C42.757 58.2554 42.6502 60.0153 42.5679 60.2537C42.4359 60.6354 42.9734 61.1207 47.0568 64.3071C49.608 66.2979 51.8324 67.9268 52 67.9268C52.1676 67.9268 54.392 66.2979 56.9433 64.3071C61.0267 61.1207 61.5642 60.6354 61.4321 60.2537C61.3499 60.0153 61.243 58.2554 61.1951 56.343L61.1079 52.8657L59.7241 53.447C57.1925 54.5108 55.0461 54.9201 52 54.9201C48.954 54.9201 46.8075 54.5108 44.276 53.447L42.8921 52.8657L42.805 56.343ZM39.49 63.1659C39.2568 63.2604 38.5255 63.403 37.865 63.4832C37.2044 63.5632 36.6066 63.6618 36.5361 63.702C36.3125 63.8297 39.7426 72.3671 40.2149 72.8576C41.0522 73.7276 41.8968 73.5277 45.6337 71.5757C48.3411 70.1613 48.9361 69.7752 48.7169 69.5751C47.9292 68.8557 40.2198 62.9705 40.0792 62.9815C39.9884 62.9886 39.7231 63.0717 39.49 63.1659ZM59.4805 66.2758C57.1712 68.0878 55.2238 69.6283 55.1535 69.6994C55.0831 69.7705 56.5364 70.6159 58.383 71.5783C62.1187 73.5251 62.9527 73.7225 63.7851 72.8576C64.3785 72.2411 67.6833 63.7771 67.3666 63.6847C67.2381 63.6471 66.5387 63.5204 65.8125 63.403C65.0864 63.2856 64.3094 63.1426 64.086 63.0855C63.7859 63.0085 62.5822 63.8425 59.4805 66.2758ZM70.3002 65.457C67.5665 72.584 66.9342 74.0437 66.2547 74.7959C65.1473 76.0217 64.1398 76.4645 62.461 76.4637C61.2522 76.4631 60.8457 76.3632 59.749 75.7962C59.0395 75.4296 58.4369 75.1584 58.41 75.1938C58.3832 75.2289 57.9331 76.1828 57.4096 77.3134L56.458 79.369L58.1898 90.0231C59.1425 95.8831 59.9219 100.739 59.9219 100.815C59.9219 100.891 64.1266 100.953 69.2657 100.953H78.6094V97.5859V94.2187L79.2031 93.6249C79.5298 93.2983 79.9937 93.0312 80.2344 93.0312C80.4751 93.0312 80.939 93.2983 81.2657 93.6249L81.8594 94.2187V97.5859V100.953H85.5222C89.4967 100.953 90.0886 100.833 91 99.8458L91.5078 99.2956L91.5657 88.8001C91.6297 77.2435 91.5862 76.702 90.3923 74.1773C88.2849 69.7212 85.304 67.5735 78.9204 65.9122C76.9342 65.395 71.2742 64.1874 70.8374 64.1874C70.8098 64.1874 70.5679 64.7588 70.3002 65.457ZM50.1317 72.8274L48.3647 73.7282L49.2591 75.6102L50.1534 77.4921H52H53.8466L54.741 75.61L55.6354 73.7278L53.8218 72.817C52.8243 72.3161 51.9834 71.9109 51.9533 71.9165C51.923 71.922 51.1034 72.3321 50.1317 72.8274ZM66.4579 79.7637C66.0867 79.9465 65.5611 80.4228 65.2899 80.8218C64.8207 81.5124 64.7969 81.6984 64.7969 84.6754C64.7969 88.2519 64.9543 88.7288 66.4036 89.5433C67.2066 89.9947 67.3047 90.0002 73.5085 89.9419C80.651 89.8748 80.4968 89.9098 81.4139 88.1442C81.8494 87.3059 81.8783 87.0396 81.8202 84.3821C81.7593 81.5867 81.7446 81.5047 81.1724 80.7551C80.1844 79.4606 79.948 79.4212 73.1823 79.4265C67.9959 79.4304 67.0366 79.4785 66.4579 79.7637ZM50.478 81.0976C50.3102 81.8093 47.3281 100.328 47.3281 100.659C47.3281 100.907 48.058 100.953 52 100.953C55.9421 100.953 56.6719 100.907 56.6719 100.659C56.6719 100.328 53.6898 81.8093 53.522 81.0976C53.4229 80.6777 53.2992 80.6406 52 80.6406C50.7008 80.6406 50.5771 80.6777 50.478 81.0976ZM67.8438 84.7031V86.9374H73.2266H78.6094V84.7031V82.4687H73.2266H67.8438V84.7031Z" fill="black" fill-opacity="0.439"/>
<path fill-rule="evenodd" clip-rule="evenodd" d="M42.7934 0.324337C41.5937 0.699103 39.7024 2.44313 39.5107 3.35151C39.2614 4.53207 39.2003 4.56538 37.2452 4.5796C35.659 4.59118 35.2625 4.67162 34.0927 5.21904C32.3761 6.0222 31.2951 7.00837 30.5212 8.47676C29.5492 10.3205 29.4531 11.212 29.4531 18.3813V24.9614L28.8541 25.3152C28.1011 25.7601 27.483 26.5882 27.1054 27.6581C26.7209 28.748 26.7189 33.3045 27.1024 34.3793C27.7552 36.209 29.6002 37.5718 31.4297 37.576C32.3783 37.5783 32.2749 37.407 32.7188 39.7109C33.4019 43.257 35.3945 46.7965 38.1865 49.4231L39.8359 50.9746L39.7733 55.1277C39.7128 59.1526 39.6963 59.2962 39.2387 59.7829C38.8911 60.1526 38.4623 60.3216 37.6137 60.4231C32.2483 61.0656 24.1991 62.7901 20.6576 64.056C16.1369 65.6719 12.8688 68.5589 10.9417 72.6389C9.70348 75.2604 9.3468 77.1275 9.34517 80.996C9.34395 84.0271 9.37686 84.3299 9.75 84.7031C10.2607 85.2137 11.3996 85.2416 11.8257 84.7539C12.066 84.4788 12.1621 83.6405 12.2509 81.0468C12.3821 77.2009 12.6348 76.012 13.846 73.5381C14.5005 72.2015 15.0331 71.4774 16.236 70.2881C18.1622 68.3836 19.5445 67.5601 22.4234 66.6018C25.532 65.5669 32.9353 63.9457 33.226 64.2362C33.2887 64.2992 34.1065 66.3198 35.0431 68.7269C37.4333 74.8686 37.533 75.0349 39.3898 75.9673C40.7704 76.6607 42.2429 76.5974 44.045 75.7668C44.8482 75.3965 45.5418 75.1306 45.5865 75.1757C45.8774 75.4688 47.5312 79.1697 47.5312 79.5276C47.5312 79.9514 44.3938 99.5633 44.1766 100.496L44.0704 100.953H34.629H25.1875V97.4999C25.1875 94.3176 25.1556 94.0149 24.7812 93.6406C24.2121 93.0714 23.0734 93.0956 22.66 93.6859C22.4043 94.0509 22.3438 94.7894 22.3438 97.5452V100.953L18.332 100.952C12.2925 100.951 12.3411 101.003 12.1883 94.3854C12.0939 90.2955 12.0553 89.9283 11.6917 89.6628C11.129 89.2521 10.2239 89.3073 9.75 89.7812C9.36731 90.1639 9.34375 90.4582 9.34375 94.8416V99.4957L10.0053 100.774C10.4252 101.585 10.985 102.295 11.5377 102.716C13.3356 104.087 10.5844 104 52 104C93.4156 104 90.6644 104.087 92.4623 102.716C93.015 102.295 93.5748 101.585 93.9947 100.774L94.6562 99.4957V88.7392C94.6562 76.9079 94.6049 76.2783 93.404 73.3849C91.6528 69.1658 88.0998 65.7704 83.8134 64.2193C80.0843 62.87 74.5168 61.6094 68.3516 60.7187C64.0504 60.0971 64.3061 60.4434 64.2265 55.1321L64.1641 50.9602L65.588 49.6419C68.8945 46.5806 70.6286 43.2457 71.6235 38.0351C71.6976 37.6473 71.841 37.5779 72.5703 37.576C74.3998 37.5718 76.2448 36.209 76.8976 34.3793C77.2984 33.2562 77.2777 28.7746 76.8662 27.5669C76.5698 26.6971 75.1506 24.9843 74.726 24.9843C74.6275 24.9843 74.5469 23.4885 74.5469 21.6602C74.5469 18.6048 74.5127 18.2928 74.1258 17.8008C73.5983 17.1301 72.5112 17.0669 71.9062 17.6718C71.5349 18.0431 71.5 18.3488 71.5 21.2265V24.3749H70.3127C68.4978 24.3749 68.3753 24.1596 68.249 20.7484C68.1614 18.385 68.0763 17.8343 67.6721 17.0115C66.3398 14.2999 63.2208 13.578 58.8325 14.9656C54.2502 16.4143 50.3039 16.4106 45.4779 14.9532C40.9963 13.5998 37.9358 14.2228 36.4284 16.7949C35.8987 17.6988 35.8538 17.955 35.7547 20.6417C35.6245 24.172 35.5121 24.3749 33.6873 24.3749H32.5L32.502 17.8242C32.5039 11.3676 32.5108 11.2586 32.9836 10.2433C33.5333 9.06278 34.6125 8.08351 35.7342 7.74734C36.1599 7.61998 37.2149 7.51557 38.0788 7.51557C39.9005 7.51557 40.8082 7.17148 41.5488 6.20054C41.821 5.84385 42.1011 5.26373 42.1716 4.91171C42.3363 4.08824 43.1366 3.29179 43.9485 3.1431C44.2991 3.07912 49.202 3.05393 54.8438 3.08745L65.1016 3.14838L66.4672 3.79534C68.8732 4.93507 70.553 6.92285 71.2166 9.41479C71.3698 9.99024 71.4963 10.7639 71.4976 11.1344C71.5024 12.4836 72.4482 13.2455 73.5512 12.7885C74.388 12.442 74.595 11.7249 74.3525 10.0142C73.7082 5.47152 70.7978 2.02774 66.2791 0.460837C64.8619 -0.030522 44.3113 -0.14996 42.7934 0.324337ZM39.4684 17.7553C38.9078 18.2373 38.8966 18.2909 38.7812 21.0561C38.6821 23.4359 38.5927 24.0073 38.1997 24.7812C37.6005 25.9611 37.049 26.5557 36.1055 27.0395L35.3438 27.4302L35.3472 32.6564C35.3511 38.329 35.5008 39.5622 36.462 41.8461C38.4142 46.4843 42.6095 50.0134 47.8359 51.4131C49.0868 51.7481 50.0455 51.8484 52 51.8484C53.9545 51.8484 54.9132 51.7481 56.1641 51.4131C61.0659 50.1003 65.0122 46.96 67.0331 42.7645C68.4958 39.7275 68.6562 38.7243 68.6562 32.6163V27.4302L67.8945 27.0395C66.951 26.5557 66.3995 25.9611 65.8003 24.7812C65.4081 24.0089 65.3177 23.4345 65.2188 21.0792C65.1127 18.5589 65.0585 18.2483 64.6525 17.8429C63.8745 17.0657 62.2968 17.0984 59.2081 17.9558C53.8025 19.4559 50.2485 19.4386 44.8906 17.8861C42.1204 17.0834 40.3012 17.0395 39.4684 17.7553ZM30.358 27.9205C29.8819 28.3966 29.8594 28.5331 29.8594 30.956C29.8594 33.2982 29.8945 33.5326 30.3164 34.0104C30.613 34.3464 31.0229 34.5462 31.4844 34.5804L32.1953 34.6328L32.2508 31.0273L32.3062 27.4218H31.5815C31.0826 27.4218 30.7009 27.5774 30.358 27.9205ZM71.7031 30.9645C71.7031 33.1526 71.7823 34.5562 71.9103 34.6352C72.2438 34.8414 73.5034 34.335 73.8353 33.8611C74.0669 33.5304 74.1406 32.8207 74.1406 30.9221C74.1406 28.5354 74.1175 28.3958 73.642 27.9205C73.3001 27.5786 72.917 27.4218 72.4232 27.4218H71.7031V30.9645ZM42.6562 56.2524C42.6562 58.1443 42.5715 59.9151 42.468 60.1873C42.2902 60.6551 42.5484 60.8913 47.1398 64.4617L52 68.241L56.8602 64.4617C61.4516 60.8913 61.7098 60.6551 61.532 60.1873C61.4285 59.9151 61.3438 58.1443 61.3438 56.2524C61.3438 54.3605 61.2637 52.8124 61.1658 52.8124C61.0681 52.8124 60.4746 53.0395 59.8469 53.3172C56.9124 54.615 52.0591 55.2055 48.828 54.6578C47.3243 54.4031 44.5457 53.5689 43.6394 53.1003C43.3333 52.942 42.9867 52.8124 42.8695 52.8124C42.729 52.8124 42.6562 53.9861 42.6562 56.2524ZM39.5943 63.0514C39.533 63.1127 38.78 63.2675 37.9212 63.3953C37.0622 63.523 36.3594 63.6855 36.3594 63.7566C36.3594 64.1125 39.6654 72.2808 39.9868 72.7187C40.1915 72.998 40.6776 73.3074 41.0668 73.4063C41.7144 73.5706 42.0741 73.4353 45.3129 71.8099C47.2593 70.8331 48.9117 69.9753 48.985 69.9036C49.1613 69.7317 40.6433 63.1198 40.1148 63.0183C39.8899 62.9752 39.6557 62.99 39.5943 63.0514ZM59.814 65.9518C57.6879 67.6067 55.6926 69.1624 55.3802 69.409L54.8119 69.8569L58.5307 71.7185C61.916 73.413 62.312 73.5641 62.9452 73.4032C63.3277 73.3061 63.8085 72.998 64.0132 72.7187C64.3346 72.2808 67.6406 64.1125 67.6406 63.7566C67.6406 63.6855 66.978 63.5228 66.168 63.3948C65.3579 63.2671 64.4668 63.1129 64.1875 63.0524C63.7664 62.9614 63.0189 63.4568 59.814 65.9518ZM69.3629 67.6914C66.545 74.9175 66.4946 75.0067 64.7345 75.8988C63.221 76.6656 61.8215 76.627 59.955 75.7668C59.1518 75.3965 58.4582 75.1306 58.4135 75.1757C58.1169 75.4745 56.4688 79.1734 56.4688 79.5398C56.4688 79.9715 59.602 99.545 59.8232 100.496L59.9296 100.953H69.371H78.8125V97.4999C78.8125 94.3176 78.8444 94.0149 79.2188 93.6406C79.4444 93.4149 79.8958 93.2343 80.2344 93.2343C80.573 93.2343 81.0243 93.4149 81.25 93.6406C81.6244 94.0149 81.6562 94.3176 81.6562 97.4999V100.953L85.668 100.952C89.2885 100.952 89.7431 100.913 90.3299 100.555C91.7455 99.6919 91.7109 99.9972 91.7109 88.3593C91.7109 76.6177 91.7227 76.7324 90.1993 73.6328C88.7528 70.6897 86.0505 68.268 82.825 67.0241C80.3615 66.0741 72.4764 64.1874 70.9694 64.1874C70.8374 64.1874 70.1143 65.7641 69.3629 67.6914ZM50.0703 72.7526C49.1766 73.207 48.4088 73.6122 48.3641 73.6531C48.3194 73.6939 48.685 74.596 49.1766 75.6573L50.0703 77.5872H52H53.9297L54.8234 75.6573C55.315 74.596 55.6806 73.6939 55.6359 73.6529C55.3871 73.4248 52.1708 71.9078 51.9537 71.9164C51.8115 71.9218 50.9641 72.2982 50.0703 72.7526ZM66.8996 79.6381C66.0782 79.8833 65.0565 81.0472 64.8917 81.9253C64.821 82.3017 64.7938 83.8055 64.8308 85.2672C64.9084 88.3195 65.0853 88.7383 66.6291 89.5273C67.493 89.9687 67.7158 89.9843 73.1173 89.9831C76.1938 89.9825 79.0349 89.8921 79.4308 89.782C79.8269 89.6721 80.4668 89.2563 80.8527 88.8584L81.5547 88.1349L81.6197 85.0067C81.6942 81.4175 81.5175 80.7635 80.2636 79.9837C79.5421 79.535 79.3713 79.5224 73.5312 79.4854C70.2355 79.4645 67.2512 79.5331 66.8996 79.6381ZM50.375 80.8516C50.375 81.0426 47.4819 99.0646 47.2377 100.394L47.1352 100.953H52H56.8648L56.7623 100.394C56.5181 99.0646 53.625 81.0426 53.625 80.8516C53.625 80.7232 52.9888 80.6406 52 80.6406C51.0112 80.6406 50.375 80.7232 50.375 80.8516ZM67.8438 84.7031V86.9374H73.3281H78.8125V84.7031V82.4687H73.3281H67.8438V84.7031Z" fill="#EC5A31"/>
</g>
<defs>
<clipPath id="clip0_3_22">
<rect width="104" height="104" fill="white"/>
</clipPath>
</defs>
</svg>
