<svg width="104" height="104" viewBox="0 0 104 104" fill="none" xmlns="http://www.w3.org/2000/svg">
<g clip-path="url(#clip0_4_40)">
<mask id="path-1-inside-1_4_40" fill="white">
<path fill-rule="evenodd" clip-rule="evenodd" d="M33.4141 0.275859C31.2648 0.830187 30.8427 1.19439 21.125 10.8765C14.2143 17.7621 11.5162 20.3249 11.0703 20.4275C9.01124 20.9004 6.27656 23.2487 5.35316 25.3368C4.59103 27.0597 4.4395 28.7574 4.50734 34.8087L4.57031 40.4134L5.11042 40.9531C5.86767 41.7099 7.13233 41.7099 7.88958 40.9531C8.37992 40.4629 8.43619 40.245 8.50058 38.5893C8.53978 37.5863 8.59727 36.7656 8.62855 36.7656C8.65963 36.7656 9.17617 36.9895 9.7762 37.2631C11.2706 37.9446 13.2175 38.23 14.7119 37.9868C16.132 37.7557 17.2185 37.4195 17.768 37.0415C18.7113 36.3921 18.6875 36.1221 18.6875 47.5193C18.6875 53.4339 18.6117 58.3198 18.5191 58.3769C18.4265 58.4342 17.9008 58.3408 17.3511 58.1693C16.8013 57.9977 15.3918 57.8096 14.2188 57.7511C12.2066 57.6507 11.2588 57.771 9.00616 58.4129C8.57695 58.5352 8.56558 58.4856 8.49834 56.1872C8.43253 53.9358 8.40613 53.8127 7.87109 53.2783C7.0915 52.4995 5.9083 52.4995 5.12891 53.2783L4.57031 53.8365L4.50267 57.5228L4.43483 61.2089L3.59816 62.0685C2.43648 63.2623 1.30772 65.2027 0.654266 67.1286L0.101562 68.7578V85.7649V102.772L0.664828 103.335L1.22789 103.898H48.3438H95.4596L96.0227 103.335L96.5859 102.772L96.64 85.4257L96.6942 68.0792L97.7108 67.861C100.901 67.1769 103.202 64.7585 103.814 61.4451C103.956 60.6757 104.004 57.0304 103.952 50.904C103.875 41.7647 103.862 41.5072 103.407 40.2188C102.815 38.5375 102.497 37.9304 101.524 36.6125C100.195 34.8124 97.9176 33.2497 95.6369 32.5723L94.6581 32.2817L95.2486 31.1119C95.9475 29.7274 96.2813 28.1011 96.2813 26.0798C96.2813 24.7169 96.3257 24.5649 96.8906 24C97.4578 23.4327 97.5 23.2867 97.5 21.8884C97.5 16.317 92.9421 11.7813 87.3438 11.7813C81.7454 11.7813 77.1875 16.317 77.1875 21.8884C77.1875 23.2867 77.2298 23.4327 77.7969 24C78.3618 24.5649 78.4063 24.7169 78.4063 26.0798C78.4063 28.1011 78.74 29.7274 79.4389 31.1119L80.0294 32.2817L79.0506 32.5723C75.8942 33.5097 73.188 35.854 71.7941 38.8584C71.3678 39.7774 71.1821 40.4552 70.7677 42.6055L70.6798 43.0625H64.4812C57.6451 43.0625 57.5264 43.0828 57.0934 44.3249C56.9556 44.72 56.875 47.3023 56.875 51.3193V57.6875H52.7109H48.5469V50.9687V44.25L47.9531 43.6562L47.3594 43.0625H39.3317H31.304L30.734 43.5525L30.1641 44.0426L30.0625 50.8142L29.9609 57.586L26.2539 57.6414L22.5469 57.6967V44.1324V30.5681L29.6506 23.4666L36.7543 16.3652L41.7873 21.3584C45.4663 25.0086 47.1071 26.4967 47.8867 26.8903L48.9531 27.4288V29.0912V30.7535L46.5156 33.2191L44.0781 35.6846V38.1453C44.0781 40.9358 44.2431 41.4798 45.2313 41.9488C45.7951 42.2163 46.0505 42.234 46.6243 42.0445C47.71 41.6863 47.9375 41.194 47.9375 39.2035V37.4664L49.415 35.9986L50.8928 34.5309L52.3603 36.0086L53.8281 37.4861V39.1392C53.8281 40.7355 53.8495 40.8101 54.4531 41.3179C55.3274 42.0536 56.3156 42.0282 57.0938 41.25C57.6853 40.6585 57.6875 40.6472 57.6875 38.1705V35.6846L55.25 33.2191L52.8125 30.7535V28.9902V27.2271L53.5742 26.8338C54.5563 26.3268 55.6985 25.126 56.2991 23.9688C56.6804 23.2339 56.7734 22.7362 56.7734 21.4297C56.7734 18.6254 56.9339 18.833 47.4707 9.4043C39.7575 1.71947 39.0122 1.03311 37.9612 0.647781C36.4528 0.0944681 34.6793 -0.0505631 33.4141 0.275859ZM33.4563 4.48705C31.6607 5.43462 31.1383 8.01228 32.4307 9.54811C33.1658 10.4217 34.0143 10.8055 35.1914 10.7963C38.1771 10.7732 39.5787 7.34461 37.5176 5.10556C36.5328 4.0355 34.8089 3.77306 33.4563 4.48705ZM34.1023 5.78908C32.3934 6.71777 33.1587 9.34376 35.1384 9.34376C36.9216 9.34376 37.6768 7.27859 36.3454 6.04298C35.6765 5.42203 34.9324 5.33773 34.1023 5.78908ZM22.4819 15.1978L17.0369 20.6456L18.3639 21.5038C19.7084 22.3734 20.7998 23.5296 21.4096 24.7305C21.594 25.0937 21.8116 25.3906 21.8934 25.3906C22.1018 25.3906 32.8069 14.6579 32.694 14.5623C32.6432 14.5194 32.112 14.2218 31.5138 13.9013C30.2764 13.2383 29.0648 11.9598 28.429 10.6462C28.1903 10.1534 27.9797 9.75001 27.961 9.75001C27.9423 9.75001 25.4765 12.2015 22.4819 15.1978ZM41.792 10.617C41.5957 11.0949 41.031 11.9482 40.5368 12.5131L39.6384 13.5401L44.3467 18.2189C46.9361 20.7923 49.2808 23.0474 49.557 23.2302C50.4764 23.8386 51.7711 23.5473 52.5521 22.5562C52.6882 22.3836 52.8025 21.8343 52.806 21.3359L52.8125 20.4297L47.4805 15.0887L42.1484 9.74798L41.792 10.617ZM84.5924 16.4109C82.9906 17.3093 81.9916 18.4216 81.4982 19.8555L81.2711 20.5156H83.2918H85.3125V18.2813C85.3125 17.0524 85.2896 16.0507 85.2617 16.0554C85.2339 16.0601 84.9327 16.22 84.5924 16.4109ZM89.375 18.2772V20.5156H91.3957H93.4164L93.1927 19.8555C92.7288 18.4856 91.5901 17.2142 90.1367 16.443L89.375 16.0386V18.2772ZM12.5938 24.1546C11.6194 24.3571 10.7258 24.8524 9.96877 25.6094C9.06791 26.5103 8.70594 27.3098 8.58244 28.6723C8.33259 31.4275 10.2964 33.7771 13.0904 34.0653C15.1202 34.2749 17.2894 33.0007 18.1309 31.1045C18.6056 30.0351 18.6497 28.2108 18.2254 27.1952C17.3284 25.0484 14.8174 23.6925 12.5938 24.1546ZM82.4708 26.3555C82.473 28.4584 82.9707 29.7727 84.1602 30.8169C84.8388 31.4127 86.5369 32.0938 87.3438 32.0938C88.1506 32.0938 89.8487 31.4127 90.5273 30.8169C91.7168 29.7727 92.2145 28.4584 92.2167 26.3555L92.2188 24.5781H87.3438H82.4688L82.4708 26.3555ZM13.0577 27.1731C12.4605 27.2687 11.5781 28.341 11.5781 28.9709C11.5781 30.836 13.9076 31.7497 15.0288 30.3241C15.5391 29.6756 15.5657 28.4351 15.082 27.8478C14.6904 27.3725 13.7564 27.0611 13.0577 27.1731ZM81.3225 36.1569C78.9007 36.5113 76.6523 38.127 75.6167 40.2567C74.7407 42.0583 74.6139 43.0322 75.1422 43.899C75.5422 44.5553 75.5611 44.8787 75.5617 51.1367L75.5625 57.6875H76.7725H77.9823L78.0421 51.8012L78.1016 45.915L78.6417 45.3751C79.3989 44.6182 80.6636 44.6182 81.4208 45.3751L81.9609 45.915L82.0205 51.8012L82.0802 57.6875H83.6595C86.438 57.6875 88.7736 58.6798 90.5375 60.6101C91.0808 61.2044 91.7499 62.164 92.0244 62.7425L92.5234 63.7945L92.625 54.8547L92.7266 45.915L93.2667 45.3751C94.0239 44.618 95.2886 44.6182 96.0458 45.3753L96.5859 45.9152L96.6428 54.9498C96.68 60.8589 96.7706 63.9844 96.9049 63.9844C97.2589 63.9844 98.6016 63.2324 98.9649 62.8306C99.9121 61.7831 99.9375 61.4933 99.9375 51.7333C99.9375 43.2807 99.906 42.4208 99.5583 41.3666C98.6115 38.4967 96.288 36.594 93.182 36.1447C91.6821 35.9277 82.825 35.9367 81.3225 36.1569ZM5.78906 45.8876C4.53781 46.4232 4.18519 48.1524 5.13358 49.1008C5.86523 49.8325 7.1433 49.8239 7.88491 49.0823C8.61494 48.3523 8.62977 47.1311 7.9172 46.419C7.35719 45.8593 6.40839 45.6223 5.78906 45.8876ZM34.0606 47.0539C33.9842 47.1303 33.9219 49.5556 33.9219 52.4434V57.6942L39.2539 57.6402L44.5859 57.586V52.3047V47.0235L39.3926 46.9692C36.5363 46.9396 34.137 46.9775 34.0606 47.0539ZM60.9375 52.3047V57.6875H66.2188H71.5V52.3047V46.9219H66.2188H60.9375V52.3047ZM12.0933 61.773C9.44734 62.1583 6.682 64.0752 5.30827 66.4761C4.04828 68.6784 4.0625 68.4688 4.0625 84.9489V99.9375H13.611H23.1595L23.1071 87.9024L23.0547 75.8672L22.0391 75.8195C21.4805 75.7933 20.5408 75.6637 19.9509 75.5316C18.8973 75.2958 18.8669 75.3023 18.2244 75.8983C16.1519 77.8209 13.2476 78.295 10.6968 77.127C6.25564 75.0939 5.37692 69.2098 9.01388 65.8576C9.91717 65.0248 11.7938 64.1875 12.7571 64.1875C13.2293 64.1875 13.393 64.0187 13.8637 63.0462C14.638 61.4459 14.5874 61.4096 12.0933 61.773ZM21.1912 61.7571C20.0035 61.9946 19.2784 62.4104 18.447 63.3307C16.0883 65.9415 16.903 69.8864 20.1094 71.3792L21.0234 71.8047H53.0156H85.0078L85.9219 71.3792C89.9155 69.5198 89.9155 63.9275 85.9219 62.073C85.008 61.6487 85.0001 61.6485 53.5234 61.618C36.207 61.6013 21.6576 61.6639 21.1912 61.7571ZM26.8736 65.1568C25.4042 66.3118 26.1798 68.6563 28.0313 68.6563C29.3776 68.6563 30.2788 67.3884 29.8521 66.0951C29.4548 64.8911 27.8537 64.3868 26.8736 65.1568ZM39.8736 65.1568C38.4042 66.3118 39.1798 68.6563 41.0313 68.6563C42.3776 68.6563 43.2788 67.3884 42.8521 66.0951C42.4548 64.8911 40.8537 64.3868 39.8736 65.1568ZM52.8736 65.1568C51.4042 66.3118 52.1798 68.6563 54.0313 68.6563C55.3776 68.6563 56.2788 67.3884 55.8521 66.0951C55.4548 64.8911 53.8537 64.3868 52.8736 65.1568ZM65.8736 65.1568C64.4042 66.3118 65.1798 68.6563 67.0313 68.6563C68.3776 68.6563 69.2788 67.3884 68.8521 66.0951C68.4548 64.8911 66.8537 64.3868 65.8736 65.1568ZM78.8736 65.1568C77.4042 66.3118 78.1798 68.6563 80.0313 68.6563C81.3776 68.6563 82.2788 67.3884 81.8521 66.0951C81.4548 64.8911 79.8537 64.3868 78.8736 65.1568ZM11.5466 69.071C10.8672 69.7854 10.7656 70.0164 10.7664 70.8484C10.7673 71.9906 11.3025 72.9721 12.1684 73.4197C13.0051 73.8524 14.4054 73.816 15.0172 73.3458L15.511 72.9664L14.9833 72.3391C14.3668 71.6067 13.5131 69.8553 13.3116 68.9102C13.1158 67.992 12.5216 68.0461 11.5466 69.071ZM92.0325 70.7369C91.7638 71.3227 91.0559 72.3135 90.4595 72.939L89.375 74.0758V87.0066V99.9375H91H92.625V84.8047C92.625 76.4817 92.6016 69.6719 92.573 69.6719C92.5444 69.6719 92.3012 70.1511 92.0325 70.7369ZM27.1044 76.0303C27.0485 76.1758 27.0286 77.4784 27.0601 78.9248L27.1172 81.5547L39.4747 81.6563L51.8322 81.7578L52.3224 82.3278C52.9705 83.0814 52.9705 84.0905 52.3224 84.8441L51.8322 85.4141L39.4747 85.5156L27.1172 85.6172L27.0638 92.7774L27.0103 99.9375H52.5052H78V87.8516V75.7656H52.6031C31.9229 75.7656 27.1871 75.8148 27.1044 76.0303ZM82.0625 87.8516V99.9375H83.6875H85.3125V87.8516V75.7656H83.6875H82.0625V87.8516ZM57.4206 82.1468C56.7466 82.7714 56.5571 83.5295 56.8801 84.3089C57.2093 85.1041 57.8145 85.5156 58.654 85.5156C59.5502 85.5156 60.2587 85.021 60.527 84.2079C61.1435 82.3402 58.8524 80.82 57.4206 82.1468Z"/>
</mask>
<path fill-rule="evenodd" clip-rule="evenodd" d="M33.4141 0.275859C31.2648 0.830187 30.8427 1.19439 21.125 10.8765C14.2143 17.7621 11.5162 20.3249 11.0703 20.4275C9.01124 20.9004 6.27656 23.2487 5.35316 25.3368C4.59103 27.0597 4.4395 28.7574 4.50734 34.8087L4.57031 40.4134L5.11042 40.9531C5.86767 41.7099 7.13233 41.7099 7.88958 40.9531C8.37992 40.4629 8.43619 40.245 8.50058 38.5893C8.53978 37.5863 8.59727 36.7656 8.62855 36.7656C8.65963 36.7656 9.17617 36.9895 9.7762 37.2631C11.2706 37.9446 13.2175 38.23 14.7119 37.9868C16.132 37.7557 17.2185 37.4195 17.768 37.0415C18.7113 36.3921 18.6875 36.1221 18.6875 47.5193C18.6875 53.4339 18.6117 58.3198 18.5191 58.3769C18.4265 58.4342 17.9008 58.3408 17.3511 58.1693C16.8013 57.9977 15.3918 57.8096 14.2188 57.7511C12.2066 57.6507 11.2588 57.771 9.00616 58.4129C8.57695 58.5352 8.56558 58.4856 8.49834 56.1872C8.43253 53.9358 8.40613 53.8127 7.87109 53.2783C7.0915 52.4995 5.9083 52.4995 5.12891 53.2783L4.57031 53.8365L4.50267 57.5228L4.43483 61.2089L3.59816 62.0685C2.43648 63.2623 1.30772 65.2027 0.654266 67.1286L0.101562 68.7578V85.7649V102.772L0.664828 103.335L1.22789 103.898H48.3438H95.4596L96.0227 103.335L96.5859 102.772L96.64 85.4257L96.6942 68.0792L97.7108 67.861C100.901 67.1769 103.202 64.7585 103.814 61.4451C103.956 60.6757 104.004 57.0304 103.952 50.904C103.875 41.7647 103.862 41.5072 103.407 40.2188C102.815 38.5375 102.497 37.9304 101.524 36.6125C100.195 34.8124 97.9176 33.2497 95.6369 32.5723L94.6581 32.2817L95.2486 31.1119C95.9475 29.7274 96.2813 28.1011 96.2813 26.0798C96.2813 24.7169 96.3257 24.5649 96.8906 24C97.4578 23.4327 97.5 23.2867 97.5 21.8884C97.5 16.317 92.9421 11.7813 87.3438 11.7813C81.7454 11.7813 77.1875 16.317 77.1875 21.8884C77.1875 23.2867 77.2298 23.4327 77.7969 24C78.3618 24.5649 78.4063 24.7169 78.4063 26.0798C78.4063 28.1011 78.74 29.7274 79.4389 31.1119L80.0294 32.2817L79.0506 32.5723C75.8942 33.5097 73.188 35.854 71.7941 38.8584C71.3678 39.7774 71.1821 40.4552 70.7677 42.6055L70.6798 43.0625H64.4812C57.6451 43.0625 57.5264 43.0828 57.0934 44.3249C56.9556 44.72 56.875 47.3023 56.875 51.3193V57.6875H52.7109H48.5469V50.9687V44.25L47.9531 43.6562L47.3594 43.0625H39.3317H31.304L30.734 43.5525L30.1641 44.0426L30.0625 50.8142L29.9609 57.586L26.2539 57.6414L22.5469 57.6967V44.1324V30.5681L29.6506 23.4666L36.7543 16.3652L41.7873 21.3584C45.4663 25.0086 47.1071 26.4967 47.8867 26.8903L48.9531 27.4288V29.0912V30.7535L46.5156 33.2191L44.0781 35.6846V38.1453C44.0781 40.9358 44.2431 41.4798 45.2313 41.9488C45.7951 42.2163 46.0505 42.234 46.6243 42.0445C47.71 41.6863 47.9375 41.194 47.9375 39.2035V37.4664L49.415 35.9986L50.8928 34.5309L52.3603 36.0086L53.8281 37.4861V39.1392C53.8281 40.7355 53.8495 40.8101 54.4531 41.3179C55.3274 42.0536 56.3156 42.0282 57.0938 41.25C57.6853 40.6585 57.6875 40.6472 57.6875 38.1705V35.6846L55.25 33.2191L52.8125 30.7535V28.9902V27.2271L53.5742 26.8338C54.5563 26.3268 55.6985 25.126 56.2991 23.9688C56.6804 23.2339 56.7734 22.7362 56.7734 21.4297C56.7734 18.6254 56.9339 18.833 47.4707 9.4043C39.7575 1.71947 39.0122 1.03311 37.9612 0.647781C36.4528 0.0944681 34.6793 -0.0505631 33.4141 0.275859ZM33.4563 4.48705C31.6607 5.43462 31.1383 8.01228 32.4307 9.54811C33.1658 10.4217 34.0143 10.8055 35.1914 10.7963C38.1771 10.7732 39.5787 7.34461 37.5176 5.10556C36.5328 4.0355 34.8089 3.77306 33.4563 4.48705ZM34.1023 5.78908C32.3934 6.71777 33.1587 9.34376 35.1384 9.34376C36.9216 9.34376 37.6768 7.27859 36.3454 6.04298C35.6765 5.42203 34.9324 5.33773 34.1023 5.78908ZM22.4819 15.1978L17.0369 20.6456L18.3639 21.5038C19.7084 22.3734 20.7998 23.5296 21.4096 24.7305C21.594 25.0937 21.8116 25.3906 21.8934 25.3906C22.1018 25.3906 32.8069 14.6579 32.694 14.5623C32.6432 14.5194 32.112 14.2218 31.5138 13.9013C30.2764 13.2383 29.0648 11.9598 28.429 10.6462C28.1903 10.1534 27.9797 9.75001 27.961 9.75001C27.9423 9.75001 25.4765 12.2015 22.4819 15.1978ZM41.792 10.617C41.5957 11.0949 41.031 11.9482 40.5368 12.5131L39.6384 13.5401L44.3467 18.2189C46.9361 20.7923 49.2808 23.0474 49.557 23.2302C50.4764 23.8386 51.7711 23.5473 52.5521 22.5562C52.6882 22.3836 52.8025 21.8343 52.806 21.3359L52.8125 20.4297L47.4805 15.0887L42.1484 9.74798L41.792 10.617ZM84.5924 16.4109C82.9906 17.3093 81.9916 18.4216 81.4982 19.8555L81.2711 20.5156H83.2918H85.3125V18.2813C85.3125 17.0524 85.2896 16.0507 85.2617 16.0554C85.2339 16.0601 84.9327 16.22 84.5924 16.4109ZM89.375 18.2772V20.5156H91.3957H93.4164L93.1927 19.8555C92.7288 18.4856 91.5901 17.2142 90.1367 16.443L89.375 16.0386V18.2772ZM12.5938 24.1546C11.6194 24.3571 10.7258 24.8524 9.96877 25.6094C9.06791 26.5103 8.70594 27.3098 8.58244 28.6723C8.33259 31.4275 10.2964 33.7771 13.0904 34.0653C15.1202 34.2749 17.2894 33.0007 18.1309 31.1045C18.6056 30.0351 18.6497 28.2108 18.2254 27.1952C17.3284 25.0484 14.8174 23.6925 12.5938 24.1546ZM82.4708 26.3555C82.473 28.4584 82.9707 29.7727 84.1602 30.8169C84.8388 31.4127 86.5369 32.0938 87.3438 32.0938C88.1506 32.0938 89.8487 31.4127 90.5273 30.8169C91.7168 29.7727 92.2145 28.4584 92.2167 26.3555L92.2188 24.5781H87.3438H82.4688L82.4708 26.3555ZM13.0577 27.1731C12.4605 27.2687 11.5781 28.341 11.5781 28.9709C11.5781 30.836 13.9076 31.7497 15.0288 30.3241C15.5391 29.6756 15.5657 28.4351 15.082 27.8478C14.6904 27.3725 13.7564 27.0611 13.0577 27.1731ZM81.3225 36.1569C78.9007 36.5113 76.6523 38.127 75.6167 40.2567C74.7407 42.0583 74.6139 43.0322 75.1422 43.899C75.5422 44.5553 75.5611 44.8787 75.5617 51.1367L75.5625 57.6875H76.7725H77.9823L78.0421 51.8012L78.1016 45.915L78.6417 45.3751C79.3989 44.6182 80.6636 44.6182 81.4208 45.3751L81.9609 45.915L82.0205 51.8012L82.0802 57.6875H83.6595C86.438 57.6875 88.7736 58.6798 90.5375 60.6101C91.0808 61.2044 91.7499 62.164 92.0244 62.7425L92.5234 63.7945L92.625 54.8547L92.7266 45.915L93.2667 45.3751C94.0239 44.618 95.2886 44.6182 96.0458 45.3753L96.5859 45.9152L96.6428 54.9498C96.68 60.8589 96.7706 63.9844 96.9049 63.9844C97.2589 63.9844 98.6016 63.2324 98.9649 62.8306C99.9121 61.7831 99.9375 61.4933 99.9375 51.7333C99.9375 43.2807 99.906 42.4208 99.5583 41.3666C98.6115 38.4967 96.288 36.594 93.182 36.1447C91.6821 35.9277 82.825 35.9367 81.3225 36.1569ZM5.78906 45.8876C4.53781 46.4232 4.18519 48.1524 5.13358 49.1008C5.86523 49.8325 7.1433 49.8239 7.88491 49.0823C8.61494 48.3523 8.62977 47.1311 7.9172 46.419C7.35719 45.8593 6.40839 45.6223 5.78906 45.8876ZM34.0606 47.0539C33.9842 47.1303 33.9219 49.5556 33.9219 52.4434V57.6942L39.2539 57.6402L44.5859 57.586V52.3047V47.0235L39.3926 46.9692C36.5363 46.9396 34.137 46.9775 34.0606 47.0539ZM60.9375 52.3047V57.6875H66.2188H71.5V52.3047V46.9219H66.2188H60.9375V52.3047ZM12.0933 61.773C9.44734 62.1583 6.682 64.0752 5.30827 66.4761C4.04828 68.6784 4.0625 68.4688 4.0625 84.9489V99.9375H13.611H23.1595L23.1071 87.9024L23.0547 75.8672L22.0391 75.8195C21.4805 75.7933 20.5408 75.6637 19.9509 75.5316C18.8973 75.2958 18.8669 75.3023 18.2244 75.8983C16.1519 77.8209 13.2476 78.295 10.6968 77.127C6.25564 75.0939 5.37692 69.2098 9.01388 65.8576C9.91717 65.0248 11.7938 64.1875 12.7571 64.1875C13.2293 64.1875 13.393 64.0187 13.8637 63.0462C14.638 61.4459 14.5874 61.4096 12.0933 61.773ZM21.1912 61.7571C20.0035 61.9946 19.2784 62.4104 18.447 63.3307C16.0883 65.9415 16.903 69.8864 20.1094 71.3792L21.0234 71.8047H53.0156H85.0078L85.9219 71.3792C89.9155 69.5198 89.9155 63.9275 85.9219 62.073C85.008 61.6487 85.0001 61.6485 53.5234 61.618C36.207 61.6013 21.6576 61.6639 21.1912 61.7571ZM26.8736 65.1568C25.4042 66.3118 26.1798 68.6563 28.0313 68.6563C29.3776 68.6563 30.2788 67.3884 29.8521 66.0951C29.4548 64.8911 27.8537 64.3868 26.8736 65.1568ZM39.8736 65.1568C38.4042 66.3118 39.1798 68.6563 41.0313 68.6563C42.3776 68.6563 43.2788 67.3884 42.8521 66.0951C42.4548 64.8911 40.8537 64.3868 39.8736 65.1568ZM52.8736 65.1568C51.4042 66.3118 52.1798 68.6563 54.0313 68.6563C55.3776 68.6563 56.2788 67.3884 55.8521 66.0951C55.4548 64.8911 53.8537 64.3868 52.8736 65.1568ZM65.8736 65.1568C64.4042 66.3118 65.1798 68.6563 67.0313 68.6563C68.3776 68.6563 69.2788 67.3884 68.8521 66.0951C68.4548 64.8911 66.8537 64.3868 65.8736 65.1568ZM78.8736 65.1568C77.4042 66.3118 78.1798 68.6563 80.0313 68.6563C81.3776 68.6563 82.2788 67.3884 81.8521 66.0951C81.4548 64.8911 79.8537 64.3868 78.8736 65.1568ZM11.5466 69.071C10.8672 69.7854 10.7656 70.0164 10.7664 70.8484C10.7673 71.9906 11.3025 72.9721 12.1684 73.4197C13.0051 73.8524 14.4054 73.816 15.0172 73.3458L15.511 72.9664L14.9833 72.3391C14.3668 71.6067 13.5131 69.8553 13.3116 68.9102C13.1158 67.992 12.5216 68.0461 11.5466 69.071ZM92.0325 70.7369C91.7638 71.3227 91.0559 72.3135 90.4595 72.939L89.375 74.0758V87.0066V99.9375H91H92.625V84.8047C92.625 76.4817 92.6016 69.6719 92.573 69.6719C92.5444 69.6719 92.3012 70.1511 92.0325 70.7369ZM27.1044 76.0303C27.0485 76.1758 27.0286 77.4784 27.0601 78.9248L27.1172 81.5547L39.4747 81.6563L51.8322 81.7578L52.3224 82.3278C52.9705 83.0814 52.9705 84.0905 52.3224 84.8441L51.8322 85.4141L39.4747 85.5156L27.1172 85.6172L27.0638 92.7774L27.0103 99.9375H52.5052H78V87.8516V75.7656H52.6031C31.9229 75.7656 27.1871 75.8148 27.1044 76.0303ZM82.0625 87.8516V99.9375H83.6875H85.3125V87.8516V75.7656H83.6875H82.0625V87.8516ZM57.4206 82.1468C56.7466 82.7714 56.5571 83.5295 56.8801 84.3089C57.2093 85.1041 57.8145 85.5156 58.654 85.5156C59.5502 85.5156 60.2587 85.021 60.527 84.2079C61.1435 82.3402 58.8524 80.82 57.4206 82.1468Z" fill="#EC5A31" stroke="white" mask="url(#path-1-inside-1_4_40)"/>
</g>
<defs>
<clipPath id="clip0_4_40">
<rect width="104" height="104" fill="white"/>
</clipPath>
</defs>
</svg>
